<?xml version="1.0" encoding="UTF-8"?> <svg xmlns="http://www.w3.org/2000/svg" viewBox="0 0 540 540"><defs><style>.cls-1{fill:#306b9b;}.cls-2{fill:#268040;}.cls-3{fill:#529d65;}.cls-4{fill:#e2dcd7;}.cls-5{fill:none;}.cls-6{fill:#183059;}.cls-7{fill:#edeae7;}.cls-8{fill:#fff;}.cls-9{fill:#e4e2e2;}.cls-10{fill:#b5b1af;}.cls-11{fill:#d3e5d5;}.cls-12{fill:#72829a;}.cls-13{fill:#ba3038;}.cls-14{fill:#278542;}.cls-15{fill:#ba3338;}.cls-16{fill:#faa919;}.cls-17{fill:#f8a87a;}.cls-18{fill:#fccc75;}.cls-19{fill:#f26f23;}.cls-20{fill:#fba919;}</style></defs><g id="BG"><rect class="cls-1" width="540" height="540"></rect></g><g id="Illos"><path class="cls-2" d="M181.75,315.36c-5.94-15.39-10.4-21.76-5.94-35.38s5.35-19.46-4.16-31.32c-9.25-11.54,5.7-36.15-13.37-37.45v-.06l-.81,0-.82,0v.06c-17,1.16-6.93,20.9-11.16,33.33a13.92,13.92,0,0,0,2.58,5.33c9.5,11.85,8.61,17.69,4.15,31.32s0,20,5.95,35.38-11.44,19.29-5,33.44c4.41,9.78,1.8,15.26-.23,17.7l4.58-.13,17.3.5s8.32-5.13,1.93-19.28S187.69,330.75,181.75,315.36Z"></path><path class="cls-3" d="M153.12,350c-6.39-14.15,11-18.05,5-33.44s-10.4-21.76-5.95-35.38,5.35-19.47-4.15-31.32a13.92,13.92,0,0,1-2.58-5.33,13.24,13.24,0,0,1-2.21,4.12c-9.5,11.86-8.61,17.69-4.16,31.32s0,20-5.94,35.38,11.44,19.29,5,33.44,1.93,19.28,1.93,19.28l12.73-.37C154.92,365.27,157.53,359.79,153.12,350Z"></path><path class="cls-4" d="M189.38,409c-12.68-28.86-12.51-38.45-12-41a.67.67,0,0,0-.66-.79H138.24a.67.67,0,0,0-.66.79c.49,2.55.66,12.14-12,41-10.55,24-1.33,39.22,5.67,46.5a22.11,22.11,0,0,1,6.12,15.34h0a2.46,2.46,0,0,0,2.46,2.46h35.34a2.46,2.46,0,0,0,2.46-2.46h0a22.11,22.11,0,0,1,6.12-15.34C190.72,448.17,199.94,433,189.38,409Z"></path><path class="cls-5" d="M361.23,98l0,0,0,0Z"></path><path class="cls-5" d="M361.49,98.18l.07,0Z"></path><path class="cls-6" d="M330.47,106l-.38.12Z"></path><path class="cls-6" d="M326.67,106.76l-.43,0Z"></path><path class="cls-6" d="M234.8,106.81l-.62,0Z"></path><path class="cls-6" d="M234,106.78l-.42,0Z"></path><path class="cls-6" d="M326,106.79l-.63,0Z"></path><path class="cls-6" d="M327.29,106.7l-.39,0Z"></path><path class="cls-6" d="M328.55,106.49l-.42.08Z"></path><path class="cls-6" d="M329.32,106.32l-.59.14Z"></path><path class="cls-6" d="M327.91,106.61l-.39.06Z"></path><path class="cls-6" d="M233.32,106.74l-.39,0Z"></path><path class="cls-6" d="M229,105.69l-.35-.15Z"></path><path class="cls-6" d="M228.41,105.46l-.38-.18Z"></path><path class="cls-6" d="M229.53,105.9l-.35-.13Z"></path><path class="cls-6" d="M227.87,105.21l-.52-.27Z"></path><path class="cls-6" d="M232.69,106.67l-.38-.06Z"></path><path class="cls-6" d="M232.08,106.57l-.41-.08Z"></path><path class="cls-6" d="M230.12,106.1l-.37-.12Z"></path><path class="cls-6" d="M231.49,106.46l-.59-.14Z"></path><path class="cls-6" d="M230.83,106.3l-.51-.14Z"></path><path class="cls-6" d="M332.19,105.28l-.38.18Z"></path><path class="cls-6" d="M337.58,101.07l-.24.29Z"></path><path class="cls-6" d="M338.41,100l-.34.47Z"></path><path class="cls-6" d="M338,100.56c-.09.12-.18.24-.28.35C337.81,100.8,337.9,100.68,338,100.56Z"></path><path class="cls-6" d="M331,105.77l-.35.13Z"></path><path class="cls-6" d="M337.19,101.53l-.25.27Z"></path><path class="cls-6" d="M339.05,99c-.07.11-.13.22-.2.32C338.92,99.2,339,99.09,339.05,99Z"></path><path class="cls-6" d="M339.34,98.46l-.18.32Z"></path><path class="cls-6" d="M338.74,99.48l-.24.37Z"></path><path class="cls-6" d="M336.37,102.38l-.33.31Z"></path><path class="cls-6" d="M336.78,102l-.26.27Z"></path><path class="cls-6" d="M227.26,104.89l-.42-.24Z"></path><path class="cls-6" d="M333.38,104.65l-.42.24Z"></path><path class="cls-6" d="M332.87,104.94l-.53.27Z"></path><path class="cls-6" d="M335.94,102.78l-.44.39Z"></path><path class="cls-6" d="M331.61,105.54l-.35.15Z"></path><path class="cls-6" d="M334.87,103.66l-.3.22Z"></path><path class="cls-6" d="M333.89,104.34l-.33.2Z"></path><path class="cls-6" d="M335.38,103.26l-.34.27Z"></path><path class="cls-6" d="M334.38,104l-.3.21Z"></path><path class="cls-6" d="M329.9,106.16l-.52.14Z"></path><path class="cls-6" d="M223.28,101.8c-.08-.09-.17-.17-.25-.27C223.11,101.63,223.2,101.71,223.28,101.8Z"></path><path class="cls-6" d="M225.18,103.53l-.34-.27Z"></path><path class="cls-6" d="M221.72,99.85l-.24-.37Z"></path><path class="cls-6" d="M224.18,102.69l-.33-.31Z"></path><path class="cls-6" d="M224.72,103.17l-.44-.39Z"></path><path class="cls-6" d="M222.88,101.36l-.24-.29Z"></path><path class="cls-6" d="M221.37,99.3c-.07-.1-.13-.21-.2-.32C221.24,99.09,221.3,99.2,221.37,99.3Z"></path><path class="cls-6" d="M222.15,100.45c-.12-.16-.24-.31-.35-.47C221.91,100.14,222,100.29,222.15,100.45Z"></path><path class="cls-6" d="M221.06,98.78l-.18-.32Z"></path><path class="cls-6" d="M222.5,100.91l-.27-.35Z"></path><path class="cls-6" d="M223.7,102.24l-.26-.27Z"></path><path class="cls-6" d="M225.65,103.88l-.3-.22Z"></path><path class="cls-6" d="M226.66,104.54l-.33-.2Z"></path><path class="cls-6" d="M226.14,104.22l-.3-.21Z"></path><path class="cls-7" d="M365.56,105a12.36,12.36,0,0,0-1.37-3.59c-.14-.24-.29-.47-.44-.7a11.67,11.67,0,0,0-1-1.3l-.44-.48-.42-.39-.31-.28-.07,0-.26-.21,0,0a11.9,11.9,0,0,0-1-.7l-.34-.21-.35-.2c-.26-.14-.53-.28-.81-.4a12,12,0,0,0-4.91-1h-9.74a5.11,5.11,0,0,0-4.56,2.76l-.06.11-.1.2-.18.32a2,2,0,0,0-.11.2c-.07.11-.13.22-.2.32l-.11.18-.24.37-.09.13-.34.47a.76.76,0,0,1-.08.11c-.09.12-.18.24-.28.35s-.09.11-.13.16l-.24.29-.15.17-.25.27-.16.17-.26.27-.15.14-.33.31-.1.09-.44.39-.12.09-.34.27-.17.13-.3.22-.19.13-.3.21-.19.12-.33.2-.18.11-.42.24-.09,0-.53.27-.15.07-.38.18-.2.08-.35.15-.22.08-.35.13-.22.08-.38.12-.19.06-.52.14-.06,0-.59.14-.18,0-.42.08-.22,0-.39.06-.23,0-.39,0-.23,0-.43,0H326l-.63,0H234.8l-.62,0H234l-.42,0-.23,0-.39,0-.24,0-.38-.06-.23,0-.41-.08-.18,0-.59-.14-.07,0-.51-.14-.2-.06-.37-.12-.22-.08-.35-.13-.22-.08-.35-.15-.2-.08-.38-.18-.16-.07-.52-.27-.09,0-.42-.24-.18-.11-.33-.2-.19-.12-.3-.21-.19-.13-.3-.22-.17-.13-.34-.27-.12-.09-.44-.39-.1-.09-.33-.31-.15-.14-.26-.27-.16-.17c-.08-.09-.17-.17-.25-.27l-.15-.17-.24-.29-.14-.16-.27-.35a.76.76,0,0,1-.08-.11c-.12-.16-.24-.31-.35-.47a.57.57,0,0,0-.08-.13l-.24-.37-.11-.18c-.07-.1-.13-.21-.2-.32l-.11-.2-.18-.32a1.28,1.28,0,0,0-.11-.2.54.54,0,0,0-.05-.11,5.11,5.11,0,0,0-4.57-2.76h-9.74a12,12,0,0,0-8.88,3.93l-.37.44a10.87,10.87,0,0,0-1,1.41c-.1.16-.2.33-.29.5a10.17,10.17,0,0,0-.51,1c-.07.18-.15.36-.21.54a12,12,0,0,0-.73,4.13V455.18a11.87,11.87,0,0,0,.94,4.67,10.17,10.17,0,0,0,.51,1c.09.17.19.34.29.5a10.87,10.87,0,0,0,1,1.41l.37.44a12.14,12.14,0,0,0,4.43,3.07,11.47,11.47,0,0,0,1.29.43,11.81,11.81,0,0,0,3.16.43H353.8a12.05,12.05,0,0,0,3.32-.47,9,9,0,0,0,.92-.31,12,12,0,0,0,7.52-8.8c0-.2.07-.39.1-.59a12.32,12.32,0,0,0,.14-1.83V107.39A12,12,0,0,0,365.56,105Z"></path><path class="cls-6" d="M361.56,98.23l.31.28Z"></path><path class="cls-6" d="M361.21,98a11.9,11.9,0,0,0-1-.7l-.34-.21.34.21A11.9,11.9,0,0,1,361.21,98Z"></path><path class="cls-6" d="M361.23,98h0l.26.21Z"></path><path class="cls-6" d="M373,103.45h0a19.18,19.18,0,0,0-2.24-5.88c-.24-.42-.48-.8-.71-1.15a20.9,20.9,0,0,0-1.66-2.12c-.25-.28-.49-.53-.73-.77l-.68-.65c-.31-.28-.65-.57-1-.87a19.2,19.2,0,0,0-1.66-1.18c-.4-.26-.77-.48-1.13-.67s-.84-.44-1.32-.65a19.48,19.48,0,0,0-8-1.72H206.41a19.63,19.63,0,0,0-14.5,6.42c-.21.23-.42.47-.61.71a19.58,19.58,0,0,0-1.64,2.3c-.16.27-.32.54-.47.82-.3.56-.58,1.13-.83,1.72-.12.29-.24.59-.35.89a19.53,19.53,0,0,0-1.19,6.74V455.18a19.55,19.55,0,0,0,1.54,7.63c.25.58.53,1.16.83,1.72.15.28.31.55.47.82a20.45,20.45,0,0,0,1.64,2.3c.19.24.4.48.61.71a19.8,19.8,0,0,0,7.23,5,22,22,0,0,0,2.12.71,19.49,19.49,0,0,0,5.15.69H353.8a19.57,19.57,0,0,0,5.43-.77c.51-.15,1-.31,1.5-.5A19.62,19.62,0,0,0,373,459.12q.11-.48.18-1a21.12,21.12,0,0,0,.22-3V107.39A19.22,19.22,0,0,0,373,103.45Zm-97.8-8.06a5.42,5.42,0,0,1,9.82,0,5.53,5.53,0,0,1,.51,2.3,5.42,5.42,0,1,1-10.33-2.3Zm90.6,359.79a12.32,12.32,0,0,1-.14,1.83c0,.2-.06.39-.1.59a12,12,0,0,1-7.52,8.8,9,9,0,0,1-.92.31,12.05,12.05,0,0,1-3.32.47H206.41a11.81,11.81,0,0,1-3.16-.43,11.47,11.47,0,0,1-1.29-.43,12.14,12.14,0,0,1-4.43-3.07l-.37-.44a10.87,10.87,0,0,1-1-1.41c-.1-.16-.2-.33-.29-.5a10.17,10.17,0,0,1-.51-1,11.87,11.87,0,0,1-.94-4.67V107.39a12,12,0,0,1,.73-4.13c.06-.18.14-.36.21-.54a10.17,10.17,0,0,1,.51-1c.09-.17.19-.34.29-.5a10.87,10.87,0,0,1,1-1.41l.37-.44a12,12,0,0,1,8.88-3.93h9.74a5.11,5.11,0,0,1,4.57,2.76.54.54,0,0,1,.05.11,1.28,1.28,0,0,1,.11.2l.18.32.11.2c.07.11.13.22.2.32l.11.18.24.37a.57.57,0,0,1,.08.13c.11.16.23.31.35.47a.76.76,0,0,0,.08.11l.27.35.14.16.24.29.15.17c.08.1.17.18.25.27l.16.17.26.27.15.14.33.31.1.09.44.39.12.09.34.27.17.13.3.22.19.13.3.21.19.12.33.2.18.11.42.24.09,0,.52.27.16.07.38.18.2.08.35.15.22.08.35.13.22.08.37.12.2.06.51.14.07,0,.59.14.18,0,.41.08.23,0,.38.06.24,0,.39,0,.23,0,.42,0h.21l.62,0h90.61l.63,0h.2l.43,0,.23,0,.39,0,.23,0,.39-.06.22,0,.42-.08.18,0,.59-.14.06,0,.52-.14.19-.06.38-.12.22-.08.35-.13.22-.08.35-.15.2-.08.38-.18.15-.07.53-.27.09,0,.42-.24.18-.11.33-.2.19-.12.3-.21.19-.13.3-.22.17-.13.34-.27.12-.09.44-.39.1-.09.33-.31.15-.14.26-.27.16-.17.25-.27.15-.17.24-.29s.09-.1.13-.16.19-.23.28-.35a.76.76,0,0,0,.08-.11l.34-.47.09-.13.24-.37.11-.18c.07-.1.13-.21.2-.32a2,2,0,0,1,.11-.2l.18-.32.1-.2.06-.11a5.11,5.11,0,0,1,4.56-2.76h9.74a12,12,0,0,1,4.91,1c.28.12.55.26.81.4l.35.2.34.21a11.9,11.9,0,0,1,1,.7l0,0h0l.26.21.07,0,.31.28.42.39.44.48a11.67,11.67,0,0,1,1,1.3c.15.23.3.46.44.7a12.36,12.36,0,0,1,1.37,3.59,12,12,0,0,1,.24,2.42Z"></path><path class="cls-6" d="M335,103.53l-.17.13Z"></path><path class="cls-6" d="M334.57,103.88l-.19.13Z"></path><path class="cls-6" d="M333,104.89l-.09,0Z"></path><path class="cls-6" d="M333.56,104.54l-.18.11Z"></path><path class="cls-6" d="M334.08,104.22l-.19.12Z"></path><path class="cls-6" d="M221.48,99.48l-.11-.18Z"></path><path class="cls-6" d="M221.17,99l-.11-.2Z"></path><path class="cls-6" d="M338.85,99.3l-.11.18Z"></path><path class="cls-6" d="M338.5,99.85l-.09.13Z"></path><path class="cls-6" d="M336.94,101.8l-.16.17Z"></path><path class="cls-6" d="M337.34,101.36l-.15.17Z"></path><path class="cls-6" d="M337.71,100.91c0,.06-.09.11-.13.16S337.67,101,337.71,100.91Z"></path><path class="cls-6" d="M338.07,100.45a.76.76,0,0,1-.08.11A.76.76,0,0,0,338.07,100.45Z"></path><path class="cls-6" d="M339.16,98.78a2,2,0,0,0-.11.2A2,2,0,0,1,339.16,98.78Z"></path><path class="cls-6" d="M339.44,98.26l-.1.2Z"></path><path class="cls-6" d="M335.5,103.17l-.12.09Z"></path><path class="cls-6" d="M220.88,98.46a1.28,1.28,0,0,0-.11-.2A1.28,1.28,0,0,1,220.88,98.46Z"></path><path class="cls-6" d="M336,102.69l-.1.09Z"></path><path class="cls-6" d="M336.52,102.24l-.15.14Z"></path><path class="cls-6" d="M234.18,106.79h0Z"></path><path class="cls-6" d="M224.84,103.26l-.12-.09Z"></path><path class="cls-6" d="M231.67,106.49l-.18,0Z"></path><path class="cls-6" d="M232.31,106.61l-.23,0Z"></path><path class="cls-6" d="M225.35,103.66l-.17-.13Z"></path><path class="cls-6" d="M227.35,104.94l-.09,0Z"></path><path class="cls-6" d="M232.93,106.7l-.24,0Z"></path><path class="cls-6" d="M224.28,102.78l-.1-.09Z"></path><path class="cls-6" d="M230.9,106.32l-.07,0Z"></path><path class="cls-6" d="M233.55,106.76l-.23,0Z"></path><path class="cls-6" d="M230.32,106.16l-.2-.06Z"></path><path class="cls-6" d="M228.61,105.54l-.2-.08Z"></path><path class="cls-6" d="M228,105.28l-.16-.07Z"></path><path class="cls-6" d="M226.33,104.34l-.19-.12Z"></path><path class="cls-6" d="M226.84,104.65l-.18-.11Z"></path><path class="cls-6" d="M225.84,104l-.19-.13Z"></path><path class="cls-6" d="M229.18,105.77l-.22-.08Z"></path><path class="cls-6" d="M223.85,102.38l-.15-.14Z"></path><path class="cls-6" d="M229.75,106l-.22-.08Z"></path><path class="cls-6" d="M330.09,106.1l-.19.06Z"></path><path class="cls-6" d="M332.34,105.21l-.15.07Z"></path><path class="cls-6" d="M330.69,105.9l-.22.08Z"></path><path class="cls-6" d="M222.23,100.56a.76.76,0,0,1-.08-.11A.76.76,0,0,0,222.23,100.56Z"></path><path class="cls-6" d="M222.64,101.07l-.14-.16Z"></path><path class="cls-6" d="M331.26,105.69l-.22.08Z"></path><path class="cls-6" d="M221.8,100a.57.57,0,0,0-.08-.13A.57.57,0,0,1,221.8,100Z"></path><path class="cls-6" d="M331.81,105.46l-.2.08Z"></path><path class="cls-6" d="M329.38,106.3l-.06,0Z"></path><path class="cls-6" d="M328.73,106.46l-.18,0Z"></path><path class="cls-6" d="M223.44,102l-.16-.17Z"></path><path class="cls-6" d="M326.9,106.74l-.23,0Z"></path><path class="cls-6" d="M327.52,106.67l-.23,0Z"></path><path class="cls-6" d="M326.24,106.78h0Z"></path><path class="cls-6" d="M328.13,106.57l-.22,0Z"></path><path class="cls-6" d="M223,101.53l-.15-.17Z"></path><path class="cls-8" d="M285.7,335.17h69.18a5,5,0,0,1,5,5v0a5,5,0,0,1-5,5H285.7a3.66,3.66,0,0,1-3.66-3.66v-2.62a3.66,3.66,0,0,1,3.66-3.66Z"></path><path class="cls-8" d="M285.7,355.79h46.44a5,5,0,0,1,5,5v0a5,5,0,0,1-5,5H285.7a3.66,3.66,0,0,1-3.66-3.66v-2.62A3.66,3.66,0,0,1,285.7,355.79Z"></path><path class="cls-8" d="M285.7,376.41h69.18a5,5,0,0,1,5,5v0a5,5,0,0,1-5,5H285.7a3.66,3.66,0,0,1-3.66-3.66v-2.62A3.66,3.66,0,0,1,285.7,376.41Z"></path><path class="cls-8" d="M285.7,397h46.44a5,5,0,0,1,5,5v0a5,5,0,0,1-5,5H285.7a3.66,3.66,0,0,1-3.66-3.66v-2.62A3.66,3.66,0,0,1,285.7,397Z"></path><path class="cls-8" d="M285.7,417.65h69.18a5,5,0,0,1,5,5v0a5,5,0,0,1-5,5H285.7a3.66,3.66,0,0,1-3.66-3.66v-2.62a3.66,3.66,0,0,1,3.66-3.66Z"></path><path class="cls-8" d="M285.7,438.27h46.44a5,5,0,0,1,5,5v0a5,5,0,0,1-5,5H285.7a3.66,3.66,0,0,1-3.66-3.66v-2.62A3.66,3.66,0,0,1,285.7,438.27Z"></path><rect class="cls-8" x="200.83" y="294.2" width="178.27" height="28.43" rx="14.21"></rect><circle class="cls-9" cx="359.49" cy="308.5" r="9.72"></circle><circle class="cls-4" cx="325.14" cy="308.5" r="9.72"></circle><rect class="cls-7" x="209.88" y="303.94" width="96.78" height="9.13" rx="4.56"></rect><rect class="cls-8" x="200.14" y="334.08" width="73.57" height="114.45" rx="36.79"></rect><circle class="cls-10" cx="236.92" cy="372.06" r="25.31"></circle><rect class="cls-7" x="207.55" y="410.4" width="58.75" height="9.14" rx="4.57"></rect><rect class="cls-7" x="218.81" y="428.9" width="36.23" height="9.34" rx="4.67"></rect><polygon class="cls-8" points="396.09 171.65 272.44 258.99 229.47 197.9 353.12 110.57 396.09 171.65"></polygon><path class="cls-7" d="M364.85,143.33l-30.37,21.45a3.39,3.39,0,0,1-4.73-.83h0a3.39,3.39,0,0,1,.83-4.7L361,137.8a3.38,3.38,0,0,1,4.72.83h0A3.38,3.38,0,0,1,364.85,143.33Z"></path><path class="cls-7" d="M371.33,152.46,341,173.91a3.39,3.39,0,0,1-4.73-.83h0a3.39,3.39,0,0,1,.83-4.7l30.37-21.45a3.38,3.38,0,0,1,4.73.83h0A3.39,3.39,0,0,1,371.33,152.46Z"></path><path class="cls-11" d="M322.42,200.3l-38.26,27a16.91,16.91,0,0,1-23.6-4.09h0a16.92,16.92,0,0,1,4.08-23.55l38.25-27a16.92,16.92,0,0,1,23.61,4.09h0A16.92,16.92,0,0,1,322.42,200.3Z"></path><path class="cls-12" d="M304.67,259.47l-8.35,4.13a2,2,0,0,1-1.77,0L273.75,253a3.44,3.44,0,0,1-1.64-1.84l-2.42-6.45a7.68,7.68,0,0,0-1.2-2.1l-7.13-8.78a.42.42,0,0,0-.72.11c-.37.95-.64,3.06,1.77,6.41,1.93,2.68,1.34,3.1.75,3.52a1.12,1.12,0,0,1-1.53-.27L251.92,230l-.45,3.54a2.57,2.57,0,0,0,.21,1.39l1.45,3.11a1.58,1.58,0,0,1,.14.71l-.09,2.55a2.09,2.09,0,0,0,.21,1l.85,1.75,1.85,5.16a11.32,11.32,0,0,0,4.65,5.77l35.11,21.89a2.86,2.86,0,0,0,2.53.24l13.88-5.26Z"></path><path class="cls-12" d="M336.83,236.75l-8.5-6.87a2.77,2.77,0,0,0-1.42-.6c-1.57-.17-6-.77-7.55-3.39l4.8-3.41s-.19-4.79,2.25-7.24a3,3,0,0,0,.86-2.12h0a3,3,0,0,0-.3-1.3c-.78-1.64-2.77-6.36-1.16-8.95a.43.43,0,0,1,.74,0l5.83,10.49a8.6,8.6,0,0,1,1,3.08c.32,2.46,1.4,7.44,5.09,10.84l5.95,5.54Z"></path><path class="cls-12" d="M372.73,207.43h0a6.5,6.5,0,0,0-3.58-4.91L368,202a2.93,2.93,0,0,1-1.6-2.19l-.39-2.72a6.22,6.22,0,0,0-6.27-5.32l-7.43.15a33.58,33.58,0,0,1,.32,4.57,10.43,10.43,0,0,1-1.68,4.36,1.57,1.57,0,0,0,.7,2.25l1,.46-.72,2.32a1.12,1.12,0,0,0,.25,1.09l.88.93a.89.89,0,0,1,.05,1.14h0a.79.79,0,0,0,.13,1.11l.21.17a3.84,3.84,0,0,1,1.31,2l1,3.54a2.26,2.26,0,0,0,1.93,1.63l3.21.35a3.52,3.52,0,0,1,2.77,1.91l3.05,6,16.3-6.82c-2.36-6.57-1.14-9.61-1.14-9.61l-4.67,1.59A4,4,0,0,1,372.73,207.43Z"></path><path class="cls-6" d="M387.32,188.12c1-2.39-1.45-3.71-1.45-3.71.59-2.68-2.41-3.58-2.41-3.58a3,3,0,0,0-3.16-3.39c-.11-3.14-3.5-2.86-3.5-2.86a3.28,3.28,0,0,0-4.52-.74,3.5,3.5,0,0,0-5,.45c-2.35-1.69-4.45.72-4.45.72a3.51,3.51,0,0,0-4.36,1.82,3.09,3.09,0,0,0-3.71,2.92,2.9,2.9,0,0,0-2.69,3.69c-2.26,1.31-1,3.93-1,3.93-1.84,2.72,1.22,4.51,1.22,4.51h0l7.43-.15a6.22,6.22,0,0,1,6.27,5.32l.39,2.72A2.93,2.93,0,0,0,368,202l1.12.55a6.5,6.5,0,0,1,3.58,4.91h0a4,4,0,0,0,4.55,3.39l4.22-.62a4.25,4.25,0,0,0,3.81-4.62C388.51,203.5,387,201,387,201c1.78-1.24,1.18-3.89,1.18-3.89,1.73-2.07-.25-4.1-.25-4.1A3.74,3.74,0,0,0,387.32,188.12Z"></path><path class="cls-13" d="M385.94,220l-24.47,6.11a31.73,31.73,0,0,0-20.89,7.46l-29.5,21.22,8.25,14.78,21-7.59a7,7,0,0,1,9.18,4.94l9.17,41.67a4.38,4.38,0,0,0,4.88,3.3l44.84-3.64c1.81-.26,2.62-1.94,2.78-3.76.51-5.9-3-28.95-3.31-47C407.45,223.06,387.92,220.09,385.94,220Z"></path><path class="cls-6" d="M384.22,216.36a2.54,2.54,0,0,0-3.52-1.08l-19.23,10.84,24.4-5.52a.33.33,0,0,0,.23-.48Z"></path><path class="cls-6" d="M319,271.74l-5.43,1.66a1.54,1.54,0,0,1-2.09-.6l-7.63-13.66a1.54,1.54,0,0,1,.59-2.09l4.69-3a1.54,1.54,0,0,1,2.09.6l8.38,15A1.54,1.54,0,0,1,319,271.74Z"></path><circle class="cls-14" cx="312.89" cy="186.34" r="16.81"></circle><path class="cls-15" d="M341.84,484.6l5.35-1H361a3.77,3.77,0,0,0,.92-1.85c.58-3.16,1.11-8.91.2-18l-12,1.22s-7.78,13-23.34,14.47a3.45,3.45,0,0,0-3.13,3.24l11,2A20.25,20.25,0,0,0,341.84,484.6Z"></path><path class="cls-6" d="M323.66,482.86c0,.39-.21,1.75.64,1.93l11.51,2.2a17.72,17.72,0,0,0,6.73,0l5-1,11.54.05c2.31,0,1.95-1.55,1.95-2.41H347.19l-5.35,1a20.25,20.25,0,0,1-7.2,0l-11-2v.19Z"></path><path class="cls-13" d="M363.81,310.35a.77.77,0,0,0-.77.77V316l5.76-.37V310Z"></path><polygon class="cls-13" points="372.02 309.8 372.02 315.37 384.77 314.55 384.77 308.96 372.02 309.8"></polygon><polygon class="cls-13" points="387.99 308.74 387.99 314.35 400.73 313.53 400.73 307.9 387.99 308.74"></polygon><path class="cls-13" d="M408.4,308.28a.85.85,0,0,0-.84-.84l-3.6.24v5.64l4.44-.28Z"></path><polygon class="cls-16" points="368.8 315.89 372.02 315.89 372.02 315.37 368.8 315.58 368.8 315.89"></polygon><polygon class="cls-17" points="368.8 310.02 368.8 315.58 372.02 315.37 372.02 309.8 368.8 310.02"></polygon><polygon class="cls-16" points="384.77 315.3 387.99 315.3 387.99 314.35 384.77 314.55 384.77 315.3"></polygon><polygon class="cls-17" points="384.77 308.96 384.77 314.55 387.99 314.35 387.99 308.74 384.77 308.96"></polygon><polygon class="cls-16" points="400.73 314.17 403.96 314.17 403.96 313.32 400.73 313.53 400.73 314.17"></polygon><polygon class="cls-17" points="400.73 307.9 400.73 313.53 403.96 313.32 403.96 307.68 400.73 307.9"></polygon><path class="cls-18" d="M410.47,327.26a.27.27,0,0,0-.28.28v3.15a.27.27,0,0,0,.28.27h5.34c-.14-1.23-.33-2.47-.57-3.7Z"></path><rect class="cls-5" x="382.7" y="327.26" width="15.9" height="3.71" rx="0.28"></rect><path class="cls-19" d="M364,467.12a1.06,1.06,0,0,0,1-.94l.39-4.75H347.93l.32,6.22Z"></path><path class="cls-13" d="M402.42,482.19l7-3,11.33-2.75a3.66,3.66,0,0,0,.43-2c-.22-3.2-1.14-8.9-4.28-17.49l-11.34,4.17s-1.82,10.88-19,17.62a3.5,3.5,0,0,0-2.23,3.91l11.13.4C397.91,482.86,400.23,483.21,402.42,482.19Z"></path><path class="cls-6" d="M384.41,482.83c.09.38.24,1.75,1.11,1.71L397,485c2.26-.15,4.62.31,6.66-.67l6.68-2.9,9.11-2.13c2.24-.57,1.5-2,1.29-2.82l-11.33,2.75-7,3c-2.19,1-4.71.6-7.12.78l-10.93-.33a1.06,1.06,0,0,0,0,.19Z"></path><rect class="cls-8" x="198.78" y="123.18" width="92.74" height="20.48" rx="10.24"></rect><circle class="cls-10" cx="281.39" cy="133.33" r="9.01"></circle><rect class="cls-18" x="384.85" y="327.3" width="15.9" height="3.71" rx="0.28"></rect><polygon class="cls-13" points="416.3 461.43 416.17 460.74 415.33 460.99 416.3 461.43"></polygon><polygon class="cls-17" points="383.55 371.25 383.04 372.23 383.55 371.26 383.55 371.25"></polygon><path class="cls-17" d="M413.54,419.26c-.68-4.21-3.33-9.36-5-13.27l-.65-1.48a17.06,17.06,0,0,1-1.42-7.75l8.69-49-17.86-5c-1.62.17-4.7,2.73-5.45,4.17l-8.32,13.13.06,11.15-.46,24.48a32,32,0,0,0,1.26,9.48l0,.06,18.19,53,4.29-1.1,8.24-2.11,4.39-1.13Z"></path><path class="cls-19" d="M420.29,458.59l-.81-4.7L415.09,455l-8.24,2.11-4.29,1.1,1.86,5.95,10.91-3.2.84-.24,3.36-1A1.08,1.08,0,0,0,420.29,458.59Z"></path><path class="cls-17" d="M415.81,331l-.57-3.7c-1-5.26-3.11-10.42-6.84-14.38L363,315.79l-17.79,84.68a44.51,44.51,0,0,0-.19,6.11l2.87,54.85H365.4l2.85-35c.38-4.24-.9-9.89-1.59-14.1l-.26-1.6a17.28,17.28,0,0,1,.55-7.86L383,372.23l.51-1,7.13-13.83a9.73,9.73,0,0,1,7.65-5.2l14.43-1.44a2.45,2.45,0,0,0,2.12-1.8v0A56.78,56.78,0,0,0,415.81,331Z"></path><circle class="cls-8" cx="190.01" cy="119.54" r="61.86"></circle><path class="cls-20" d="M189.79,57.67a61.87,61.87,0,1,0,61.86,61.87A61.87,61.87,0,0,0,189.79,57.67Zm42.75,62.55a3.88,3.88,0,0,1-3.88,3.88H189.9a3.88,3.88,0,0,1-3.88-3.88h0V81.46a3.88,3.88,0,0,1,7.76,0v34.88h34.88a3.88,3.88,0,0,1,3.88,3.88Z"></path></g></svg> 